<svg aria-hidden="true" style="position: absolute; width: 0; height: 0; overflow: hidden;" version="1.1" xmlns="http://www.w3.org/2000/svg" xmlns:xlink="http://www.w3.org/1999/xlink">
<defs>
<symbol id="icon-ice-cream" viewBox="0 0 32 32">
<path d="M16.075 0.156c-0.506 0.231-1.050 0.569-1.619 1.012-1.2 0.931-1.963 2.231-2.063 3.531l-0.037 0.513-0.45 0.444c-0.906 0.881-1.463 2.037-1.469 3.050 0 0.356-0.006 0.369-0.4 0.819-1.006 1.156-1.4 2.325-1.338 3.969l0.031 0.781-0.181 0.15c-0.412 0.344-0.588 1.044-0.394 1.55 0.2 0.531 0.588 0.863 1.113 0.95l0.262 0.050 0.031 1.431c0.031 1.381 0.037 1.444 0.175 1.644 0.219 0.3 0.475 0.406 1.063 0.438 0.419 0.025 0.512 0.044 0.512 0.131 0 0.056 0.281 2.481 0.619 5.387 0.656 5.681 0.631 5.538 1.025 5.831 0.175 0.125 0.244 0.131 2.938 0.15 1.812 0.012 2.838-0.006 2.987-0.044 0.244-0.075 0.538-0.331 0.625-0.55 0.025-0.075 0.319-2.494 0.65-5.375s0.613-5.294 0.625-5.369c0.025-0.119 0.081-0.137 0.569-0.169 0.575-0.031 0.738-0.106 0.988-0.444 0.119-0.156 0.131-0.281 0.163-1.619l0.031-1.444 0.281-0.050c0.994-0.169 1.481-1.231 0.994-2.15l-0.194-0.369 0.131-0.469c0.369-1.363 0.35-2.438-0.063-3.563-0.55-1.481-1.581-2.6-4.15-4.469-1.144-0.831-1.706-1.362-2.063-1.938-0.456-0.731-0.55-1.106-0.556-2.125 0-0.481 0.019-1.031 0.050-1.225 0.050-0.331 0.044-0.35-0.119-0.481-0.219-0.175-0.356-0.169-0.769 0.019zM15.938 1.844c0 0.962 0.269 1.906 0.762 2.669 0.519 0.806 0.887 1.15 2.394 2.237 1.731 1.256 2.6 2.050 3.181 2.925 0.819 1.238 1 2.619 0.544 4.106l-0.081 0.25-1.569-0.012c-2.913-0.031-4.875-0.363-6.681-1.144-1.012-0.438-2.025-1.225-2.519-1.975-0.381-0.575-0.544-1.094-0.575-1.838-0.025-0.531-0.006-0.731 0.094-1.044 0.144-0.463 0.488-1.081 0.787-1.425l0.225-0.25 0.044 0.156c0.019 0.088 0.156 0.381 0.294 0.656 0.419 0.844 1.25 1.594 2.494 2.25 0.644 0.344 2.369 1.031 2.575 1.031 0.369 0 0.556-0.494 0.294-0.762-0.056-0.056-0.462-0.244-0.9-0.419-1.613-0.637-2.563-1.194-3.131-1.819-0.6-0.662-0.856-1.344-0.856-2.275 0-1.088 0.387-1.987 1.225-2.819 0.313-0.313 1.25-1.025 1.356-1.031 0.025 0 0.044 0.238 0.044 0.531zM10.813 10.725c0.787 1.738 2.688 3.050 5.438 3.744 1.25 0.313 2.256 0.419 4.45 0.463l2.038 0.037 0.163 0.15c0.225 0.213 0.225 0.55 0 0.762-0.15 0.144-0.206 0.15-1.106 0.169-1.081 0.025-1.169 0.063-1.169 0.45 0 0.313 0.156 0.438 0.587 0.481l0.35 0.038v2.544l-11.031-0.031-0.019-1.269-0.012-1.262h4.238c2.938 0 4.306-0.019 4.444-0.069 0.331-0.119 0.431-0.506 0.194-0.744-0.125-0.125-0.206-0.125-4.981-0.125-4.506 0-4.881-0.006-5.081-0.113-0.412-0.206-0.412-0.694 0-0.9 0.162-0.081 0.375-0.113 0.806-0.113 0.519 0 0.606-0.019 0.738-0.137 0.156-0.15 0.188-0.4 0.056-0.563-0.119-0.162-0.381-0.238-0.813-0.238-0.394 0-0.4 0-0.438-0.194-0.125-0.631 0.006-1.719 0.294-2.431 0.131-0.319 0.581-1.063 0.65-1.063 0.006 0 0.1 0.188 0.206 0.412zM14.606 21.169l-0.669 0.675-0.669-0.675-0.675-0.669h2.688l-0.675 0.669zM18.794 21.169l-0.669 0.675-0.669-0.675-0.675-0.669h2.688l-0.675 0.669zM16.75 23.219l-0.719 0.719-1.438-1.438 1.438-1.438 1.438 1.438-0.719 0.719zM12.938 22.844c-0.181 0.188-0.35 0.331-0.363 0.313-0.025-0.025-0.194-1.275-0.2-1.469 0-0.050 0.206 0.113 0.45 0.356l0.456 0.456-0.344 0.344zM19.637 22.387c-0.050 0.425-0.1 0.781-0.113 0.794-0.019 0.019-0.181-0.125-0.369-0.306l-0.344-0.337 0.45-0.456c0.25-0.25 0.456-0.456 0.456-0.456 0.006 0-0.038 0.344-0.081 0.762zM14.675 23.894l0.7 0.7-1.438 1.438-0.588-0.587c-0.45-0.45-0.6-0.637-0.631-0.806-0.037-0.212-0.019-0.238 0.575-0.837 0.331-0.337 0.625-0.613 0.644-0.613s0.35 0.319 0.738 0.706zM19.375 24.625c0 0.194-0.069 0.288-0.613 0.831l-0.606 0.606-1.438-1.438 1.438-1.438 0.606 0.606c0.544 0.544 0.613 0.637 0.613 0.831zM16.8 26.019l0.7 0.7-1.438 1.438-1.438-1.438 0.7-0.7c0.387-0.387 0.719-0.706 0.738-0.706s0.35 0.319 0.738 0.706zM13.156 26.813c-0.144 0.156-0.219 0.075-0.219-0.25v-0.219l0.169 0.169c0.162 0.169 0.162 0.175 0.050 0.3zM19.144 26.706l-0.038 0.3-0.294-0.281 0.169-0.175c0.087-0.094 0.175-0.169 0.181-0.156 0.006 0.006 0 0.15-0.019 0.313zM18.938 28.319c0 0.087-0.019 0.294-0.038 0.456l-0.044 0.288h-2.387l1.688-1.688 0.387 0.387c0.288 0.281 0.394 0.438 0.394 0.556zM14.819 28.231l0.775 0.8-1.125 0.019c-0.613 0.006-1.15 0.006-1.194-0.012-0.037-0.012-0.088-0.206-0.106-0.425l-0.037-0.394 0.387-0.394c0.213-0.212 0.412-0.387 0.45-0.387s0.419 0.356 0.85 0.794zM18.719 30.356c-0.019 0.2-0.056 0.438-0.069 0.531l-0.038 0.175h-5.175l-0.006-0.175c0-0.094-0.025-0.331-0.050-0.531l-0.044-0.356h5.419l-0.038 0.356z"></path>
</symbol>
<symbol id="icon-ice-cream-_1" viewBox="0 0 32 32">
<path d="M7.5 0.094c-0.912 0.287-1.381 1.381-0.975 2.25 0.081 0.169 0.756 1.288 1.5 2.481s1.35 2.181 1.35 2.194c0 0.013-0.15 0.125-0.325 0.25-1.475 0.988-2.356 2.519-2.525 4.375-0.044 0.481-0.044 0.488-0.269 0.606-0.825 0.419-1 1.625-0.331 2.262 0.237 0.231 0.438 0.35 0.675 0.419 0.081 0.025 1.719 1.913 4.019 4.631l3.875 4.594 0.006 2.444v2.45l-0.344 0.044c-0.481 0.056-1.156 0.406-1.475 0.769-0.494 0.556-0.787 1.5-0.594 1.881 0.056 0.1 0.144 0.194 0.194 0.219 0.056 0.019 1.731 0.037 3.713 0.037 3.606 0 3.612 0 3.787-0.137 0.156-0.125 0.169-0.156 0.144-0.544-0.044-0.806-0.625-1.656-1.35-1.994-0.181-0.081-0.512-0.181-0.738-0.219l-0.4-0.069v-4.825l3.906-4.631c3.119-3.688 3.944-4.637 4.087-4.662 0.275-0.056 0.706-0.425 0.875-0.75 0.35-0.688 0.063-1.6-0.625-1.95-0.175-0.094-0.244-0.3-0.244-0.731 0-0.363-0.175-1.081-0.394-1.613-0.575-1.394-1.519-2.388-2.881-3.037l-0.581-0.275-0.038-0.506c-0.156-2.025-1.575-3.875-3.55-4.65-1.181-0.469-2.7-0.475-3.919-0.031-1.125 0.419-2.213 1.288-2.781 2.225-0.113 0.188-0.213 0.337-0.231 0.337s-0.375-0.681-0.794-1.519c-0.412-0.831-0.838-1.625-0.938-1.762-0.381-0.519-1.194-0.769-1.831-0.563zM8.488 1.137c0.081 0.081 0.588 1.012 1.119 2.075l0.969 1.931-0.069 0.381c-0.031 0.213-0.081 0.544-0.1 0.744-0.025 0.225-0.069 0.356-0.113 0.338-0.037-0.013-0.713-1.056-1.5-2.319-1-1.606-1.444-2.369-1.463-2.531-0.088-0.65 0.681-1.056 1.156-0.619zM17.169 2.131c1.281 0.319 2.375 1.219 3 2.456 0.225 0.45 0.456 1.237 0.456 1.563v0.194h-0.956c-0.794 0.006-1.031 0.025-1.444 0.144-0.6 0.175-1.375 0.556-1.869 0.919l-0.369 0.275-0.381-0.287c-0.469-0.344-1.219-0.713-1.856-0.9-0.369-0.106-0.669-0.144-1.438-0.156l-0.963-0.025 0.012-0.237c0.081-0.981 0.694-2.163 1.506-2.9 1.169-1.056 2.738-1.438 4.3-1.044zM13.269 7.344c1.369 0.287 2.613 1.275 3.231 2.556 0.363 0.762 0.5 1.331 0.5 2.125 0 0.325 0.019 0.637 0.038 0.694 0.050 0.119 0.344 0.281 0.525 0.281 0.206 0 0.438 0.275 0.438 0.512-0.006 0.25-0.106 0.4-0.337 0.488-0.269 0.1-10.706 0.088-10.912-0.019-0.344-0.175-0.4-0.588-0.112-0.856 0.125-0.113 0.219-0.125 1-0.125 0.638 0 0.913-0.025 1.044-0.094 0.294-0.15 0.344-0.463 0.119-0.7-0.125-0.131-0.188-0.144-0.75-0.144h-0.612v-0.206c0-0.106 0.031-0.375 0.063-0.594 0.306-1.869 1.712-3.406 3.563-3.888 0.575-0.144 1.594-0.162 2.206-0.031zM21.219 7.463c1.981 0.675 3.281 2.444 3.288 4.475 0 0.325 0.031 0.669 0.069 0.762 0.063 0.162 0.313 0.3 0.55 0.3 0.131 0 0.356 0.244 0.381 0.406 0.038 0.238-0.069 0.463-0.262 0.563-0.169 0.088-0.5 0.1-2.563 0.088-2.212-0.012-2.375-0.006-2.494 0.1-0.169 0.156-0.169 0.531 0 0.688 0.119 0.106 0.288 0.119 1.944 0.144 0.994 0.019 1.806 0.050 1.794 0.069-0.012 0.025-1.619 1.95-3.581 4.275l-3.563 4.225-1.588-0.025-7.175-8.5 9.825-0.063 0.3-0.15c0.675-0.331 0.988-1.225 0.675-1.912-0.113-0.256-0.469-0.613-0.725-0.731-0.125-0.056-0.144-0.119-0.175-0.631-0.063-0.963-0.381-1.875-0.956-2.744l-0.294-0.444 0.212-0.175c0.325-0.269 1.156-0.669 1.681-0.806 0.706-0.188 1.962-0.144 2.656 0.088zM16.5 26.781v2.281h-1.063v-4.563h1.063v2.281zM17.944 30.075c0.413 0.137 0.831 0.519 0.969 0.875 0.038 0.106-0.125 0.113-2.906 0.113-2.431 0-2.944-0.012-2.944-0.081 0-0.262 0.575-0.794 0.988-0.919 0.275-0.081 3.644-0.075 3.894 0.012z"></path>
</symbol>
<symbol id="icon-Vector-1" viewBox="0 0 32 32">
<path d="M32 3.223l-3.223-3.223-12.777 12.777-12.777-12.777-3.223 3.223 12.777 12.777-12.777 12.777 3.223 3.223 12.777-12.777 12.777 12.777 3.223-3.223-12.777-12.777 12.777-12.777z"></path>
</symbol>
<symbol id="icon-menu_24px1" viewBox="0 0 48 32">
<path d="M0 5.333v-5.333h48v5.333h-48zM0 18.667h48v-5.333h-48v5.333zM0 32h48v-5.333h-48v5.333z"></path>
</symbol>
</defs>
</svg>
